# xmcd
#
# Track frame offsets: 
#        150
#        8573
#        19670
#        32707
#        45585
#        60233
#        73475
#        84214
#        100567
#        116775
#        128371
#        144457
#        157057
#        169903
#
# Disc length: 2413 seconds
#
# Revision: 0
# Processed by: cddbd v1.5.2PL0 Copyright (c) Steve Scherf et al.
# Submitted via: ExactAudioCopy v1.3
#
DISCID=aa096b0e
DTITLE=Nico Brina - the blues will help you survive
DYEAR=1900
DGENRE=Boogie Woogie
TTITLE0=Rock the Boogie
TTITLE1=Two rabbits on a blind date
TTITLE2=The blues will help you survive
TTITLE3=Tipsy blues
TTITLE4=I have no reason to love you anymore
TTITLE5=Born to be a boogieman
TTITLE6=boogie woogie feelings
TTITLE7=bluesdrops
TTITLE8=it's rockin' time
TTITLE9=let yourself go
TTITLE10=lonesome pianoman
TTITLE11=time to boogie
TTITLE12=hurry harry
TTITLE13=honky tonk boogie
EXTD=
EXTT0=
EXTT1=
EXTT2=
EXTT3=
EXTT4=
EXTT5=
EXTT6=
EXTT7=
EXTT8=
EXTT9=
EXTT10=
EXTT11=
EXTT12=
EXTT13=
PLAYORDER=
